<?xml version="1.0" standalone="no"?>
<!DOCTYPE svg PUBLIC "-//W3C//DTD SVG 20010904//EN"
 "http://www.w3.org/TR/2001/REC-SVG-20010904/DTD/svg10.dtd">
<svg version="1.0" xmlns="http://www.w3.org/2000/svg"
 width="150.000000pt" height="57.000000pt" viewBox="0 0 150.000000 57.000000"
 preserveAspectRatio="xMidYMid meet">

<g transform="translate(0.000000,57.000000) scale(0.100000,-0.100000)"
fill="#000000" stroke="none">
<path d="M0 285 l0 -285 750 0 750 0 0 285 0 285 -750 0 -750 0 0 -285z m650
235 c0 -11 -6 -20 -14 -20 -18 0 -29 16 -21 30 11 18 35 11 35 -10z m63 14 c9
-10 -4 -34 -18 -34 -17 0 -28 17 -20 30 7 11 28 13 38 4z m125 -86 c-2 -54 -7
-83 -15 -86 -10 -3 -13 18 -13 82 0 71 3 86 15 86 13 0 15 -14 13 -82z m93
-72 l-91 -91 92 -92 c62 -62 89 -96 82 -103 -6 -6 -43 24 -109 90 l-100 100
99 99 c55 55 104 97 109 94 5 -3 -32 -47 -82 -97z m-241 79 c0 -8 -17 -19 -41
-25 -23 -6 -56 -27 -78 -49 -126 -126 -22 -338 155 -317 58 7 82 -8 39 -24
-74 -28 -169 1 -228 70 -75 88 -70 214 11 293 53 52 142 84 142 52z m70 -155
c0 -43 -5 -90 -11 -103 -16 -36 -64 -60 -104 -53 -34 7 -75 46 -75 72 0 21 28
17 35 -5 8 -27 58 -46 84 -32 32 18 41 44 41 125 0 61 3 76 15 76 12 0 15 -16
15 -80z m95 -180 c0 -34 -5 -55 -12 -57 -10 -4 -13 12 -13 57 0 45 3 61 13 58
7 -3 12 -24 12 -58z"/>
</g>
</svg>
